<svg width="44" height="44" viewBox="0 0 44 44" fill="none" xmlns="http://www.w3.org/2000/svg">
<path d="M5.50391 6C5.50391 2.68629 8.1902 0 11.5039 0H26L38.5009 13V38C38.5009 41.3137 35.8146 44 32.5009 44H11.5039C8.1902 44 5.50391 41.3137 5.50391 38V6Z" fill="#FF464B"/>
<path d="M26 13V0L38.5 13H26Z" fill="#FF8689"/>
<path d="M12.6321 33V25.7273H15.5014C16.053 25.7273 16.523 25.8326 16.9112 26.0433C17.2995 26.2517 17.5954 26.5417 17.799 26.9134C18.005 27.2827 18.108 27.7088 18.108 28.1918C18.108 28.6747 18.0038 29.1009 17.7955 29.4702C17.5871 29.8395 17.2853 30.1271 16.8899 30.3331C16.4969 30.5391 16.0211 30.642 15.4624 30.642H13.6335V29.4098H15.2138C15.5097 29.4098 15.7536 29.3589 15.9453 29.2571C16.1394 29.1529 16.2839 29.0097 16.3786 28.8274C16.4756 28.6428 16.5241 28.4309 16.5241 28.1918C16.5241 27.9503 16.4756 27.7396 16.3786 27.5597C16.2839 27.3774 16.1394 27.2365 15.9453 27.1371C15.7512 27.0353 15.505 26.9844 15.2067 26.9844H14.1697V33H12.6321ZM21.4848 33H18.9067V25.7273H21.5061C22.2377 25.7273 22.8674 25.8729 23.3953 26.1641C23.9233 26.4529 24.3293 26.8684 24.6134 27.4105C24.8998 27.9527 25.0431 28.6013 25.0431 29.3565C25.0431 30.1141 24.8998 30.7652 24.6134 31.3097C24.3293 31.8542 23.9209 32.272 23.3882 32.5632C22.8579 32.8544 22.2235 33 21.4848 33ZM20.4444 31.6825H21.4209C21.8755 31.6825 22.2578 31.602 22.5679 31.4411C22.8804 31.2777 23.1148 31.0256 23.2711 30.6847C23.4297 30.3414 23.509 29.8987 23.509 29.3565C23.509 28.8191 23.4297 28.38 23.2711 28.0391C23.1148 27.6982 22.8816 27.4472 22.5715 27.2862C22.2614 27.1252 21.879 27.0447 21.4245 27.0447H20.4444V31.6825ZM25.9821 33V25.7273H30.7974V26.995H27.5197V28.728H30.4778V29.9957H27.5197V33H25.9821Z" fill="white"/>
</svg>
